<?xml version="1.0"?>
<svg xmlns="http://www.w3.org/2000/svg" xmlns:xlink="http://www.w3.org/1999/xlink" version="1.1" id="Capa_1" x="0px" y="0px" viewBox="0 0 512 512" style="enable-background:new 0 0 512 512;" xml:space="preserve" width="512px" height="512px" class=""><g><g>
	<g>
		<path d="M463.996,217.173V178.18l24.327,18.245l18.046-24.061l-31.384-23.538l30.702-20.469l-16.683-25.026l-25.008,16.672v-1.168    C463.996,53.31,410.685,0,345.158,0S226.32,53.31,226.32,118.838c0,24.778,7.579,47.095,16.883,65.152H58.915v15.038    c0,99.506,72.127,182.48,166.846,199.39v37.773H109.239l27.178-27.178l-21.267-21.267l-48.445,48.445H5.632v30.076h361.304    L412.668,512l21.267-21.267l-24.465-24.465h63.969v-30.076H317.434v-38.533C401.024,380.158,463.996,305.885,463.996,217.173z     M287.358,436.192h-31.521v-34.704c1.867,0.051,3.74,0.081,5.618,0.081c3.025,0,6.136-0.071,9.261-0.213    c2.971,0.141,5.956,0.213,8.885,0.213c2.6,0,5.184-0.068,7.758-0.174V436.192z M288.517,370.56    c-29.665,3.933-60.311,0.312-88.219-10.502c-22.113-8.569-42.063-21.541-58.757-37.75c-26.552-25.779-44.874-59.746-50.581-97.202    c-0.141-0.929-1.312-11.041-1.318-11.041c0.001,0,209.697,0,209.697,0l-17.085-23.806c-11.796-16.436-25.857-42.169-25.857-71.422    c0-48.943,39.818-88.761,88.761-88.761c48.943,0,88.761,39.818,88.761,88.761c0,0,0,98.328,0,98.336    c0,51.179-26.214,99.907-68.724,128.35C341.43,361.422,316.159,366.895,288.517,370.56z" data-original="#000000" class="active-path" data-old_color="#000000" fill="#1A8EC7"/>
	</g>
</g><g>
	<g>
		<polygon points="385.853,113.525 358.527,122.634 331.201,113.525 321.69,142.058 358.527,154.338 395.364,142.058   " data-original="#000000" class="active-path" data-old_color="#000000" fill="#1A8EC7"/>
	</g>
</g></g> </svg>
