<svg id="Layer_3" enable-background="new 0 0 64 64" height="512" viewBox="0 0 64 64" width="512" xmlns="http://www.w3.org/2000/svg"><path d="m4 30h56v32h-56z" fill="#b3b3b3"/><path d="m4 30h53v32h-53z" fill="#ccc"/><path d="m10 46h8v16h-8z" fill="#98775a"/><path d="m10 46h5v16h-5z" fill="#cb9e78"/><path d="m18 46h8v16h-8z" fill="#98775a"/><path d="m18 46h5v16h-5z" fill="#cb9e78"/><path d="m38 46h8v16h-8z" fill="#98775a"/><path d="m38 46h5v16h-5z" fill="#cb9e78"/><path d="m46 46h8v16h-8z" fill="#98775a"/><path d="m46 46h5v16h-5z" fill="#cb9e78"/><path d="m52 30v5c0 2.761 2.239 5 5 5 2.761 0 5-2.239 5-5v-5" fill="#57964c"/><path d="m55.5 39.746c2.023-.64 3.5-2.51 3.5-4.746v-5h-7v5c0 2.235 1.477 4.105 3.5 4.746z" fill="#74c865"/><path d="m42 30v5c0 2.761 2.239 5 5 5 2.761 0 5-2.239 5-5v-5" fill="#57964c"/><path d="m45.5 39.746c2.023-.64 3.5-2.51 3.5-4.746v-5h-7v5c0 2.235 1.477 4.105 3.5 4.746z" fill="#74c865"/><path d="m32 30v5c0 2.761 2.239 5 5 5 2.761 0 5-2.239 5-5v-5" fill="#57964c"/><path d="m35.5 39.746c2.023-.64 3.5-2.51 3.5-4.746v-5h-7v5c0 2.235 1.477 4.105 3.5 4.746z" fill="#74c865"/><path d="m22 30v5c0 2.761 2.239 5 5 5 2.761 0 5-2.239 5-5v-5" fill="#57964c"/><path d="m25.5 39.746c2.023-.64 3.5-2.51 3.5-4.746v-5h-7v5c0 2.235 1.477 4.105 3.5 4.746z" fill="#74c865"/><path d="m12 30v5c0 2.761 2.239 5 5 5 2.761 0 5-2.239 5-5v-5" fill="#57964c"/><path d="m15.5 39.746c2.023-.64 3.5-2.51 3.5-4.746v-5h-7v5c0 2.235 1.477 4.105 3.5 4.746z" fill="#74c865"/><path d="m2 30v5c0 2.761 2.239 5 5 5 2.761 0 5-2.239 5-5v-5" fill="#57964c"/><path d="m5.5 39.746c2.023-.641 3.5-2.511 3.5-4.746v-5h-7v5c0 2.235 1.477 4.105 3.5 4.746z" fill="#74c865"/><path d="m62 30-8-8h-44l-8 8z" fill="#b3b3b3"/><path d="m10 22-8 8h57l-8-8z" fill="#ccc"/><path d="m21 18h4v4h-4z" fill="#98775a"/><path d="m39 18h4v4h-4z" fill="#98775a"/><path d="m15 2h34v16h-34z" fill="#98775a"/><g fill="#cb9e78"><path d="m24 15h-3c-1.654 0-3-1.346-3-3v-4c0-1.654 1.346-3 3-3h3v2h-3c-.552 0-1 .449-1 1v4c0 .551.448 1 1 1h3z"/><path d="m36 15h-2v-8c0-1.103.897-2 2-2h3v2h-3z"/><path d="m35 9h4v2h-4z"/><path d="m46 15h-3c-1.103 0-2-.897-2-2v-6c0-1.103.897-2 2-2h3v2h-3v6h3z"/><path d="m42 9h4v2h-4z"/><path d="m32 15h-2v-7c0-.551-.448-1-1-1s-1 .449-1 1v7h-2v-7c0-1.654 1.346-3 3-3s3 1.346 3 3z"/><path d="m27 11h4v2h-4z"/></g></svg>