<svg id="Layer_1" height="512" viewBox="0 0 128 128" width="512" xmlns="http://www.w3.org/2000/svg" data-name="Layer 1"><g fill="#9ad14b"><path d="m41.5 92.75c2-15.462-2.5-44.278-5-50.25 13.167 12.781 18.333 35.1 20.167 50.25"/><path d="m86.5 92.75c-2-15.462 2.5-44.278 5-50.25-13.167 12.781-18.333 35.1-20.167 50.25"/><path d="m72 92.75c.167-9.167-2.167-43.833-8-57.5-5.833 13.667-8.167 48.333-8 57.5"/><path d="m31.5 92.75c0-17.692-11.875-42.875-11.875-42.875 15.625 7.625 24.625 30.958 25.875 42.875"/><path d="m96.5 92.75c0-17.692 11.875-42.875 11.875-42.875-15.625 7.625-24.625 30.958-25.875 42.875"/></g><path d="m57.6 66.947a1.707 1.707 0 0 0 .2.012 1.751 1.751 0 0 0 1.737-1.551q.129-1.141.269-2.284a1.75 1.75 0 0 0 -3.474-.426q-.141 1.158-.273 2.312a1.749 1.749 0 0 0 1.541 1.937z" fill="#120e30"/><path d="m121.5 91h-23.209c.728-16.98 11.554-40.138 11.667-40.379a1.75 1.75 0 0 0 -2.351-2.318c-15.354 7.497-24.718 29.259-26.648 42.697h-7.637c.12-.89.238-1.709.358-2.481 0-.023.006-.046.008-.07 1.849-11.972 5.787-27.619 14.169-39.07-.784 3.83-1.552 8.581-2.177 13.606a1.75 1.75 0 1 0 3.473.432c1.254-10.086 2.941-17.815 3.96-20.238a1.75 1.75 0 0 0 -2.832-1.935c-9.03 8.764-14.294 21.613-17.376 33.585-1.177-14.249-3.569-31.52-7.3-40.265a1.75 1.75 0 0 0 -3.22 0c-1.98 4.659-3.721 11.936-5.17 21.636a1.75 1.75 0 0 0 3.462.518 125.777 125.777 0 0 1 3.323-16.174c3.783 12.853 5.789 35.089 6.193 47.6-.136.883-.269 1.821-.406 2.859h-11.578c-.137-1.035-.269-1.97-.405-2.851.156-4.769.558-10.831 1.107-16.672a1.75 1.75 0 1 0 -3.484-.329c-.116 1.23-.223 2.469-.325 3.706-3.082-11.979-8.347-24.84-17.383-33.61a1.75 1.75 0 0 0 -2.832 1.935c1.322 3.145 3.414 13.994 4.556 25.62a63.642 63.642 0 0 0 -5.78-9.094 1.75 1.75 0 0 0 -2.774 2.135 67.852 67.852 0 0 1 9.361 17.279 63.12 63.12 0 0 1 3.25 11.878h-10.3c-.506-12.879-6.371-28.649-9.718-36.674q1.176.892 2.316 1.932a1.751 1.751 0 0 0 2.358-2.588 33.268 33.268 0 0 0 -7.769-5.363 1.75 1.75 0 0 0 -2.349 2.32c.113.24 10.944 23.384 11.671 40.373h-23.209a1.75 1.75 0 0 0 0 3.5h115a1.75 1.75 0 0 0 0-3.5zm-16.982-36.688c-3.345 8.022-9.212 23.802-9.718 36.688h-10.3c1.639-10.134 8.408-27.9 20.018-36.688zm-60.892 23.854a200.629 200.629 0 0 0 -3.493-28.8c8.388 11.451 12.329 27.1 14.178 39.079 0 .025.006.049.009.074.12.772.238 1.591.358 2.481h-7.635a65.466 65.466 0 0 0 -3.417-12.834z" fill="#120e30"/></svg>