<?xml version="1.0" encoding="iso-8859-1"?>
<!-- Generator: Adobe Illustrator 19.0.0, SVG Export Plug-In . SVG Version: 6.00 Build 0)  -->
<svg xmlns="http://www.w3.org/2000/svg" xmlns:xlink="http://www.w3.org/1999/xlink" version="1.1" id="Capa_1" x="0px" y="0px" viewBox="0 0 512 512" style="enable-background:new 0 0 512 512;" xml:space="preserve" width="512" height="512">
<path d="M408.131,190.381l40.385-97.5c4.603-11.111,4.603-23.349,0-34.459c-4.603-11.111-13.256-19.765-24.367-24.367  c-11.109-4.603-23.348-4.603-34.459,0c-11.111,4.603-19.765,13.256-24.367,24.367l-54.66,131.959H0v35.016  c0,68.38,26.629,132.667,74.98,181.02c48.352,48.352,112.64,74.98,181.02,74.98s132.667-26.628,181.02-74.98  c48.352-48.352,74.98-112.64,74.98-181.02v-35.016H408.131z M393.04,69.902c1.536-3.708,4.423-6.595,8.131-8.131  c3.707-1.535,7.791-1.536,11.499,0c3.708,1.536,6.595,4.423,8.131,8.131c1.536,3.708,1.536,7.791,0,11.499l-45.141,108.98h-32.523  L393.04,69.902z M482,225.397c0,60.367-23.508,117.121-66.194,159.806C373.12,427.889,316.367,451.397,256,451.397  s-117.12-23.508-159.806-66.194C53.508,342.517,30,285.764,30,225.397v-5.016h452V225.397z"/>















</svg>
